<?xml version="1.0" standalone="no"?>
<!DOCTYPE svg PUBLIC "-//W3C//DTD SVG 20010904//EN"
 "http://www.w3.org/TR/2001/REC-SVG-20010904/DTD/svg10.dtd">
<svg version="1.0" xmlns="http://www.w3.org/2000/svg"
 width="1200.000000pt" height="1200.000000pt" viewBox="0 0 1200.000000 1200.000000"
 preserveAspectRatio="xMidYMid meet">

<g transform="translate(0.000000,1200.000000) scale(0.100000,-0.100000)"
fill="#000000" stroke="none">
<path d="M3000 11470 c0 -5 -18 -10 -40 -10 -22 0 -40 -4 -40 -10 0 -5 -18
-10 -40 -10 -22 0 -40 -4 -40 -10 0 -5 -13 -10 -30 -10 -16 0 -30 -4 -30 -10
0 -5 -13 -10 -30 -10 -16 0 -30 -4 -30 -10 0 -5 -9 -10 -20 -10 -11 0 -20 -4
-20 -10 0 -5 -9 -10 -20 -10 -11 0 -20 -4 -20 -10 0 -5 -8 -10 -18 -10 -10 0
-24 -9 -32 -20 -8 -11 -22 -20 -32 -20 -10 0 -18 -4 -18 -10 0 -5 -7 -10 -16
-10 -9 0 -29 -13 -44 -30 -15 -16 -33 -30 -39 -30 -15 0 -221 -206 -221 -221
0 -6 -13 -24 -30 -39 -16 -15 -30 -34 -30 -42 0 -7 -9 -20 -20 -28 -11 -8 -20
-22 -20 -32 0 -10 -4 -18 -10 -18 -5 0 -10 -9 -10 -20 0 -11 -4 -20 -10 -20
-5 0 -10 -9 -10 -20 0 -11 -4 -20 -10 -20 -5 0 -10 -9 -10 -20 0 -11 -4 -20
-10 -20 -5 0 -10 -13 -10 -30 0 -16 -4 -30 -10 -30 -5 0 -10 -9 -10 -20 0 -11
-4 -20 -10 -20 -5 0 -10 -18 -10 -40 0 -22 -4 -40 -10 -40 -5 0 -10 -18 -10
-40 0 -22 -4 -40 -10 -40 -7 0 -10 -1133 -10 -3380 0 -2247 3 -3380 10 -3380
6 0 10 -18 10 -40 0 -22 5 -40 10 -40 6 0 10 -13 10 -30 0 -16 5 -30 10 -30 6
0 10 -13 10 -30 0 -16 5 -30 10 -30 6 0 10 -9 10 -20 0 -11 5 -20 10 -20 6 0
10 -13 10 -30 0 -16 5 -30 10 -30 6 0 10 -9 10 -20 0 -11 5 -20 10 -20 6 0 10
-8 10 -18 0 -10 9 -24 20 -32 11 -8 20 -21 20 -30 0 -9 9 -22 20 -30 11 -8 20
-21 20 -28 0 -8 13 -27 30 -42 17 -15 30 -33 30 -39 0 -15 166 -181 181 -181
6 0 24 -13 39 -30 15 -16 34 -30 42 -30 7 0 20 -9 28 -20 8 -11 22 -20 32 -20
10 0 18 -4 18 -10 0 -5 9 -10 20 -10 11 0 20 -4 20 -10 0 -5 9 -10 20 -10 11
0 20 -4 20 -10 0 -5 9 -10 20 -10 11 0 20 -4 20 -10 0 -5 9 -10 20 -10 11 0
20 -4 20 -10 0 -5 14 -10 30 -10 17 0 30 -4 30 -10 0 -5 14 -10 30 -10 17 0
30 -4 30 -10 0 -5 23 -10 50 -10 28 0 50 -4 50 -10 0 -6 27 -10 60 -10 33 0
60 -4 60 -10 0 -7 143 -10 410 -10 l410 0 0 2880 c0 1913 3 2880 10 2880 6 0
10 27 10 60 0 33 4 60 10 60 6 0 10 18 10 40 0 22 5 40 10 40 6 0 10 14 10 30
0 17 5 30 10 30 6 0 10 9 10 20 0 11 5 20 10 20 6 0 10 14 10 30 0 17 5 30 10
30 6 0 10 9 10 20 0 11 5 20 10 20 6 0 10 9 10 20 0 11 5 20 10 20 6 0 10 8
10 18 0 10 9 24 20 32 11 8 20 21 20 30 0 9 9 22 20 30 11 8 20 21 20 28 0 8
14 27 30 42 17 15 30 33 30 39 0 15 146 161 161 161 6 0 24 14 39 30 15 17 34
30 42 30 7 0 20 9 28 20 8 11 22 20 32 20 10 0 18 5 18 10 0 6 8 10 18 10 10
0 24 9 32 20 8 11 22 20 32 20 10 0 18 5 18 10 0 6 9 10 20 10 11 0 20 5 20
10 0 6 14 10 30 10 17 0 30 5 30 10 0 6 14 10 30 10 17 0 30 5 30 10 0 6 18
10 40 10 22 0 40 5 40 10 0 6 14 10 30 10 17 0 30 5 30 10 0 7 510 10 1510 10
l1510 0 0 440 c0 287 -3 440 -10 440 -5 0 -10 23 -10 50 0 28 -4 50 -10 50 -5
0 -10 18 -10 40 0 22 -4 40 -10 40 -5 0 -10 9 -10 20 0 11 -4 20 -10 20 -5 0
-10 14 -10 30 0 17 -4 30 -10 30 -5 0 -10 9 -10 20 0 11 -4 20 -10 20 -5 0
-10 9 -10 20 0 11 -4 20 -10 20 -5 0 -10 9 -10 20 0 11 -4 20 -10 20 -5 0 -10
9 -10 20 0 11 -4 20 -10 20 -5 0 -10 8 -10 18 0 10 -9 24 -20 32 -11 8 -20 21
-20 28 0 8 -14 27 -30 42 -17 15 -30 33 -30 39 0 15 -166 181 -181 181 -6 0
-24 14 -39 30 -15 17 -34 30 -42 30 -7 0 -20 9 -28 20 -8 11 -22 20 -32 20
-10 0 -18 5 -18 10 0 6 -9 10 -20 10 -11 0 -20 5 -20 10 0 6 -9 10 -20 10 -11
0 -20 5 -20 10 0 6 -9 10 -20 10 -11 0 -20 5 -20 10 0 6 -9 10 -20 10 -11 0
-20 5 -20 10 0 6 -13 10 -30 10 -16 0 -30 5 -30 10 0 6 -13 10 -30 10 -16 0
-30 5 -30 10 0 6 -13 10 -30 10 -16 0 -30 5 -30 10 0 6 -18 10 -40 10 -22 0
-40 5 -40 10 0 7 -657 10 -1950 10 -1293 0 -1950 -3 -1950 -10z m2080 -680 c0
-5 14 -10 30 -10 17 0 30 -4 30 -10 0 -5 7 -10 15 -10 20 0 145 -125 145 -145
0 -8 5 -15 10 -15 6 0 10 -9 10 -20 0 -11 5 -20 10 -20 6 0 10 -13 10 -30 0
-16 5 -30 10 -30 6 0 10 -40 10 -100 0 -60 -4 -100 -10 -100 -5 0 -10 -13 -10
-30 0 -16 -4 -30 -10 -30 -5 0 -10 -9 -10 -20 0 -11 -4 -20 -10 -20 -5 0 -10
-7 -10 -15 0 -19 -104 -125 -123 -125 -7 0 -19 -9 -27 -20 -8 -11 -22 -20 -32
-20 -10 0 -18 -4 -18 -10 0 -5 -18 -10 -40 -10 -22 0 -40 -4 -40 -10 0 -6 -30
-10 -70 -10 -40 0 -70 4 -70 10 0 6 -18 10 -40 10 -22 0 -40 5 -40 10 0 6 -9
10 -20 10 -11 0 -20 5 -20 10 0 6 -8 10 -18 10 -10 0 -24 9 -32 20 -8 11 -20
20 -28 20 -17 0 -62 45 -62 62 0 8 -9 20 -20 28 -11 8 -20 22 -20 32 0 10 -4
18 -10 18 -5 0 -10 14 -10 30 0 17 -4 30 -10 30 -6 0 -10 47 -10 120 0 73 4
120 10 120 6 0 10 14 10 30 0 17 5 30 10 30 6 0 10 8 10 18 0 10 9 24 20 32
11 8 20 20 20 28 0 17 45 62 62 62 8 0 20 9 28 20 8 11 22 20 32 20 10 0 18 5
18 10 0 6 9 10 20 10 11 0 20 5 20 10 0 6 53 10 140 10 87 0 140 -4 140 -10z"/>
<path d="M5200 9350 c0 -5 -18 -10 -40 -10 -22 0 -40 -4 -40 -10 0 -5 -13 -10
-30 -10 -16 0 -30 -4 -30 -10 0 -5 -13 -10 -30 -10 -16 0 -30 -4 -30 -10 0 -5
-13 -10 -30 -10 -16 0 -30 -4 -30 -10 0 -5 -9 -10 -20 -10 -11 0 -20 -4 -20
-10 0 -5 -9 -10 -20 -10 -11 0 -20 -4 -20 -10 0 -5 -9 -10 -20 -10 -11 0 -20
-4 -20 -10 0 -5 -9 -10 -20 -10 -11 0 -20 -4 -20 -10 0 -5 -8 -10 -18 -10 -10
0 -24 -9 -32 -20 -8 -11 -21 -20 -28 -20 -8 0 -27 -13 -42 -30 -15 -16 -33
-30 -39 -30 -15 0 -181 -166 -181 -181 0 -6 -13 -24 -30 -39 -16 -15 -30 -34
-30 -42 0 -7 -9 -20 -20 -28 -11 -8 -20 -22 -20 -32 0 -10 -4 -18 -10 -18 -5
0 -10 -9 -10 -20 0 -11 -4 -20 -10 -20 -5 0 -10 -9 -10 -20 0 -11 -4 -20 -10
-20 -5 0 -10 -9 -10 -20 0 -11 -4 -20 -10 -20 -5 0 -10 -9 -10 -20 0 -11 -4
-20 -10 -20 -5 0 -10 -13 -10 -30 0 -16 -4 -30 -10 -30 -5 0 -10 -9 -10 -20 0
-11 -4 -20 -10 -20 -5 0 -10 -18 -10 -40 0 -22 -4 -40 -10 -40 -5 0 -10 -22
-10 -50 0 -27 -4 -50 -10 -50 -7 0 -10 -1117 -10 -3330 0 -2213 3 -3330 10
-3330 6 0 10 -22 10 -50 0 -27 5 -50 10 -50 6 0 10 -18 10 -40 0 -22 5 -40 10
-40 6 0 10 -13 10 -30 0 -16 5 -30 10 -30 6 0 10 -13 10 -30 0 -16 5 -30 10
-30 6 0 10 -9 10 -20 0 -11 5 -20 10 -20 6 0 10 -9 10 -20 0 -11 5 -20 10 -20
6 0 10 -8 10 -18 0 -10 9 -24 20 -32 11 -8 20 -22 20 -32 0 -10 5 -18 10 -18
6 0 10 -7 10 -16 0 -9 14 -29 30 -44 16 -15 30 -33 30 -39 0 -16 227 -241 243
-241 7 0 19 -9 27 -20 8 -11 21 -20 30 -20 9 0 22 -9 30 -20 8 -11 22 -20 32
-20 10 0 18 -4 18 -10 0 -5 9 -10 20 -10 11 0 20 -4 20 -10 0 -5 9 -10 20 -10
11 0 20 -4 20 -10 0 -5 9 -10 20 -10 11 0 20 -4 20 -10 0 -5 9 -10 20 -10 11
0 20 -4 20 -10 0 -5 14 -10 30 -10 17 0 30 -4 30 -10 0 -5 14 -10 30 -10 17 0
30 -4 30 -10 0 -5 18 -10 40 -10 22 0 40 -4 40 -10 0 -5 23 -10 50 -10 28 0
50 -4 50 -10 0 -7 637 -10 1890 -10 1253 0 1890 3 1890 10 0 6 27 10 60 10 33
0 60 4 60 10 0 6 14 10 30 10 17 0 30 5 30 10 0 6 14 10 30 10 17 0 30 5 30
10 0 6 14 10 30 10 17 0 30 5 30 10 0 6 14 10 30 10 17 0 30 5 30 10 0 6 9 10
20 10 11 0 20 5 20 10 0 6 9 10 20 10 11 0 20 5 20 10 0 6 8 10 18 10 10 0 24
9 32 20 8 11 21 20 30 20 9 0 22 9 30 20 8 11 21 20 28 20 8 0 27 14 42 30 15
17 33 30 39 30 15 0 141 126 141 141 0 6 18 28 40 49 22 21 40 45 40 52 0 7 9
20 20 28 11 8 20 22 20 32 0 10 5 18 10 18 6 0 10 8 10 18 0 10 9 24 20 32 11
8 20 22 20 32 0 10 5 18 10 18 6 0 10 9 10 20 0 11 5 20 10 20 6 0 10 14 10
30 0 17 5 30 10 30 6 0 10 14 10 30 0 17 5 30 10 30 6 0 10 14 10 30 0 17 5
30 10 30 6 0 10 18 10 40 0 22 5 40 10 40 7 0 10 1133 10 3380 0 2247 -3 3380
-10 3380 -5 0 -10 18 -10 40 0 22 -4 40 -10 40 -5 0 -10 18 -10 40 0 22 -4 40
-10 40 -5 0 -10 9 -10 20 0 11 -4 20 -10 20 -5 0 -10 14 -10 30 0 17 -4 30
-10 30 -5 0 -10 9 -10 20 0 11 -4 20 -10 20 -5 0 -10 9 -10 20 0 11 -4 20 -10
20 -5 0 -10 9 -10 20 0 11 -4 20 -10 20 -5 0 -10 8 -10 18 0 10 -9 24 -20 32
-11 8 -20 21 -20 28 0 8 -13 27 -30 42 -16 15 -30 33 -30 39 0 15 -206 221
-221 221 -6 0 -24 14 -39 30 -15 17 -35 30 -44 30 -9 0 -16 5 -16 10 0 6 -8
10 -18 10 -10 0 -24 9 -32 20 -8 11 -22 20 -32 20 -10 0 -18 5 -18 10 0 6 -9
10 -20 10 -11 0 -20 5 -20 10 0 6 -9 10 -20 10 -11 0 -20 5 -20 10 0 6 -13 10
-30 10 -16 0 -30 5 -30 10 0 6 -13 10 -30 10 -16 0 -30 5 -30 10 0 6 -18 10
-40 10 -22 0 -40 5 -40 10 0 6 -18 10 -40 10 -22 0 -40 5 -40 10 0 7 -657 10
-1950 10 -1293 0 -1950 -3 -1950 -10z m2100 -680 c0 -5 9 -10 20 -10 11 0 20
-4 20 -10 0 -5 8 -10 18 -10 10 0 24 -9 32 -20 8 -11 20 -20 28 -20 7 0 24
-11 37 -25 14 -13 25 -30 25 -37 0 -8 9 -20 20 -28 11 -8 20 -22 20 -32 0 -10
5 -18 10 -18 6 0 10 -9 10 -20 0 -11 5 -20 10 -20 6 0 10 -50 10 -130 0 -80
-4 -130 -10 -130 -5 0 -10 -13 -10 -30 0 -16 -4 -30 -10 -30 -5 0 -10 -8 -10
-18 0 -10 -9 -24 -20 -32 -11 -8 -20 -20 -20 -28 0 -7 -11 -24 -25 -37 -13
-14 -30 -25 -37 -25 -8 0 -20 -9 -28 -20 -8 -11 -22 -20 -32 -20 -10 0 -18 -4
-18 -10 0 -5 -9 -10 -20 -10 -11 0 -20 -4 -20 -10 0 -6 -57 -10 -150 -10 -93
0 -150 4 -150 10 0 6 -8 10 -18 10 -10 0 -24 9 -32 20 -8 11 -20 20 -27 20
-19 0 -123 106 -123 125 0 8 -4 15 -10 15 -5 0 -10 9 -10 20 0 11 -4 20 -10
20 -5 0 -10 14 -10 30 0 17 -4 30 -10 30 -6 0 -10 40 -10 100 0 60 4 100 10
100 6 0 10 14 10 30 0 17 5 30 10 30 6 0 10 9 10 20 0 11 5 20 10 20 6 0 10 7
10 15 0 19 104 125 123 125 7 0 19 9 27 20 8 12 26 20 42 20 15 0 28 5 28 10
0 6 53 10 140 10 87 0 140 -4 140 -10z m2040 -4680 l0 -2530 -370 0 -370 0 0
2530 0 2530 370 0 370 0 0 -2530z m-900 -210 l0 -2320 -380 0 -380 0 0 2320 0
2320 380 0 380 0 0 -2320z m-920 -920 l0 -1400 -370 0 -370 0 0 1400 0 1400
370 0 370 0 0 -1400z m-900 -140 l0 -1260 -380 0 -380 0 0 1260 0 1260 380 0
380 0 0 -1260z m-920 -700 l0 -560 -370 0 -370 0 0 560 0 560 370 0 370 0 0
-560z"/>
</g>
</svg>
